<?xml version="1.0" encoding="utf-8"?>
<!-- Generator: Adobe Illustrator 25.0.0, SVG Export Plug-In . SVG Version: 6.00 Build 0)  -->
<svg version="1.1" xmlns="http://www.w3.org/2000/svg" xmlns:xlink="http://www.w3.org/1999/xlink" x="0px" y="0px"
	 viewBox="0 0 1024 1024" style="enable-background:new 0 0 1024 1024;" xml:space="preserve">
<style type="text/css">
	.st0{fill:#0A113E;}
	.st1{fill:#FFFFFF;}
	.st2{opacity:0.71;}
	.st3{fill:#FE1211;}
	.st4{display:none;}
	.st5{display:inline;}
</style>
<symbol  id="Icon" viewBox="-512 -512 1024 1024">
	<path id="App_Icon_Placeholder_21_" class="st0" d="M-155.01,512h310c102.81,0,154.19,0,209.53-17.49
		c60.42-21.99,108-69.58,129.98-129.99C512,309.17,512,257.78,512,154.99v-309.98c0-102.8,0-154.19-17.5-209.53
		c-21.98-60.42-69.57-108-129.98-129.98C309.18-512,257.8-512,154.99-512h-310c-102.79,0-154.18,0-209.51,17.5
		c-60.42,21.98-108,69.57-129.98,129.98C-512-309.18-512-257.79-512-154.99v309.98c0,102.79,0,154.18,17.5,209.53
		c21.98,60.42,69.57,108,129.98,129.99C-309.18,512-257.8,512-155.01,512L-155.01,512"/>
	<g id="Layer_9_1_">
		<g>
			<path class="st1" d="M246.98-367.79c-36.18-2.09-71.73,3.58-107.17,9.46c-35.42,5.88-70.8,12.16-105.95,19.5
				c-12.56,2.62-24.67,8.2-36.46,13.58c-24.57,11.19-49.15,22.45-73.03,34.99c-19.49,10.23-37.88,22.55-56.95,33.61
				c-25.89,15.01-48.07,34.5-68.44,56.16c-11.08,11.78-22.2,23.6-32.42,36.12c-11.58,14.2-22.93,28.7-33,43.99
				c-10.86,16.49-21.1,33.55-29.87,51.23c-14,28.21-26.74,57.05-39.68,85.78c-16.57,36.79-25.1,76.05-35.02,114.91
				c-12.39,48.54-12.08,98.08-12.65,147.52c-0.24,21.07-0.63,42.45,6.61,62.88c5.54,15.62,10.67,31.33,21.02,44.79
				c8.25,10.73,24.34,10.3,32.74,5.79c2.35-1.27,4.27-4.05,5.48-6.57c1.93-4.04,4.8-5,8.56-3.64c12.62,4.57,23.38,1.43,34.84-5.21
				c16.53-9.58,24.3-25.79,34.4-40.27c12.01-17.22,23.46-34.84,34.86-52.47c5.91-9.14,11.31-18.63,16.65-28.13
				c0.91-1.63,0.91-4.26,0.36-6.14c-4.33-14.72-9.09-29.32-13.36-44.07c-8.18-28.27-16.09-56.61-24.19-84.91
				c-0.62-2.17-1.78-4.19-2.7-6.27c-1.11,2.1-2.43,4.12-3.3,6.31c-12,30.3-19.82,61.82-27.28,93.45
				c-2.35,9.95-5.23,19.77-7.97,29.63c-1.18,4.25-4.42,7.63-8.45,6.46c-2.55-0.74-5.22-5.02-5.75-8.08
				c-2.89-16.86-1.25-33.72,3.5-49.93c12.59-42.99,24.96-86.08,39.27-128.5c9.31-27.57,20.97-54.47,33.26-80.88
				c10.05-21.61,21.99-42.41,34.21-62.9c10.26-17.2,21.35-34.04,33.54-49.91c10.53-13.71,22.84-26.11,34.88-38.58
				c9.58-9.93,19.38-19.79,30.06-28.47c24.05-19.53,48.55-38.52,73.16-57.34c29.48-22.53,63.67-36.18,97.75-49.59
				c36.13-14.21,73.84-23.37,112.07-29.91c27.92-4.78,56.04-8.42,84.06-12.6c3.03-0.45,6.49-0.44,8.9-1.97
				c2.84-1.81,6.63-5.11,6.56-7.68c-0.07-2.75-3.77-7.23-6.53-7.78c-10.53-2.13-21.3-3.38-32.03-4.2
				C263.4-368.3,255.17-367.79,246.98-367.79z"/>
			<path class="st1" d="M203.88,208.19c10.49,16.99,21.03,33.8,31.29,50.78c6.47,10.7,12.53,21.65,18.74,32.51
				c0.65,1.13,1.43,2.39,1.49,3.62c0.13,2.46,0.73,6.03-0.57,7.16c-1.66,1.44-5.36,1.86-7.6,1.07
				c-11.91-4.22-21.26-11.99-28.51-22.27c-4.29-6.09-8.46-12.27-12.51-18.52c-11.79-18.19-22.68-37.02-35.43-54.5
				c-14.15-19.38-20.72-42.29-31.99-62.92c-14.03-25.69-20.81-53.49-24.44-82.03c-3.67-28.95-7.36-58.03-4.05-87.37
				c3.13-27.76,12.07-53.9,23.3-79.16c8.67-19.51,21.93-36.26,36.38-51.94c4.64-5.03,9.5-9.86,14.17-14.87
				c3.98-4.27,5.1-11.33,1.91-13.92c-4.64-3.75-8.94-2-13.49,1.13c-24.51,16.84-45.66,37.13-63.37,60.99
				c-16.33,22-30.69,45.12-39.69,71.21C64.8-37.26,58.95-23.91,55.85-9.95c-3.81,17.16-7.14,34.8-7.44,52.29
				c-0.76,44.78,2.36,89.43,14.58,132.81c5.12,18.17,10.87,36.46,19.03,53.4c9.39,19.48,21.75,37.52,32.84,56.18
				c1.27,2.14,2.83,4.11,3.97,6.31c8.51,16.36,21.78,28.76,34.68,41.41c7.67,7.52,17.86,9.03,27.95,9.92
				c5.3,0.47,9.08,2.28,12.74,6.32c17.78,19.65,38.4,36.01,62.3,47.37c16.97,8.07,35.61,8.21,51.94-1.16
				c7.59-4.36,12.68-13.96,17.5-22.03c6.24-10.43,3.85-21.9,0.36-32.7c-5.86-18.15-10.93-36.74-18.88-53.96
				c-8.58-18.58-19.71-36.03-30.57-53.45c-2.63-4.22-8.14-7.77-13.05-9.25c-18.98-5.72-38.25-10.49-57.44-15.53
				C205.24,207.68,203.89,208.19,203.88,208.19z"/>
			<path class="st1" d="M36.05-244.73c-2.69,0.68-4.31,0.77-5.61,1.46c-21.63,11.59-42.48,24.21-61.78,39.64
				c-24.37,19.48-46.95,40.69-67.46,64.08c-12.19,13.89-24.28,28.04-34.72,43.24c-9.39,13.67-17.04,28.66-24.18,43.67
				c-2.05,4.3-0.3,10.83,0.78,16.12c6.14,30.2,12.22,60.43,19.1,90.46c4.54,19.85,10.39,39.4,15.98,60.28
				C-81.4-10.88-33.06-131.57,36.05-244.73z"/>
			<path class="st1" d="M-171.32,222.06c11.02-22.6,21.42-43.93,31.83-65.25c2.46-5.05,3.89-9.4,2.23-15.89
				c-6.37-24.86-11.16-50.12-16.64-75.2c-3.93-17.95-8-35.87-12.07-53.78c-2.7-11.84-5.52-23.66-8.59-36.79
				c-1.36,2.47-2.2,3.87-2.92,5.34c-7.95,16.12-15.98,32.2-23.77,48.39c-4.57,9.51-9.53,18.95-12.8,28.92
				c-1.75,5.33-1.14,11.88-0.07,17.6c2.39,12.76,5.23,25.5,8.81,37.98c6.31,21.99,13.33,43.77,20.01,65.65
				c3.79,12.41,7.48,24.85,11.28,37.26C-173.58,217.76-172.72,219.12-171.32,222.06z"/>
			<path class="st1" d="M137.34-33.17c-6.68,22.8-6.56,46.22-4.04,69.63c1.29,11.96,4.26,23.74,6.39,35.61
				c0.83,4.62,3.27,7.15,7.88,8.8c14.68,5.25,29.11,11.18,43.74,16.57c3.6,1.33,7.61,1.56,10.39,2.09
				C180.15,55.1,158.78,11.04,137.34-33.17z"/>
			<path class="st1" d="M254.54,195.9c-6.17-11.65-11.83-22.16-17.32-32.75c-4.67-9.01-9.04-18.18-13.82-27.14
				c-1.23-2.31-3.19-5.34-5.36-5.89c-19.76-4.98-39.64-9.48-60.78-14.42c3.64,9.34,6.79,17.42,9.95,25.5
				c2.91,7.42,6.86,14.6,8.53,22.29c3,13.74,13.13,16.97,24.6,19.63c15.78,3.67,31.43,7.91,47.15,11.85
				C249.37,195.43,251.35,195.49,254.54,195.9z"/>
		</g>
	</g>
</symbol>
<g id="App_Icon_Kit_A">
	<g id="Notifications_and_Activity_-_Preview">
	</g>
	<g id="Settings_Icon_-_Preview_Sizes">
	</g>
	<g id="Spotlight_Icon_-_Preview_Sizes">
	</g>
	<g id="App_Icon_-_Preview_Sizes">
	</g>
	<g id="App_Icon_and_Badge_-_Main">
		<g id="_x31_024">
			
				<use xlink:href="#Icon"  width="1024" height="1024" id="_x5B_YOUR_ICON_HERE_x5D_" x="-512" y="-512" transform="matrix(1 0 0 -1 511.9999 512)" style="overflow:visible;"/>
		</g>
	</g>
</g>
<g id="image" class="st4">
	<g class="st5">
		<path class="st1" d="M759.07,902.85c-36.18,2.09-71.73-3.58-107.17-9.46c-35.42-5.88-70.8-12.16-105.95-19.5
			c-12.56-2.62-24.67-8.2-36.46-13.58c-24.57-11.19-49.15-22.45-73.03-34.99c-19.49-10.23-37.88-22.55-56.95-33.61
			c-25.89-15.01-48.07-34.5-68.44-56.16c-11.08-11.78-22.2-23.6-32.42-36.12c-11.58-14.2-22.93-28.7-33-43.99
			c-10.86-16.49-21.1-33.55-29.87-51.23c-14-28.21-26.74-57.05-39.68-85.78c-16.57-36.79-25.1-76.05-35.02-114.91
			c-12.39-48.54-12.08-98.08-12.65-147.52c-0.24-21.07-0.63-42.45,6.61-62.88c5.54-15.62,10.67-31.33,21.02-44.79
			c8.25-10.73,24.34-10.3,32.74-5.79c2.35,1.27,4.27,4.05,5.48,6.57c1.93,4.04,4.8,5,8.56,3.64c12.62-4.57,23.38-1.43,34.84,5.21
			c16.53,9.58,24.3,25.79,34.4,40.27c12.01,17.22,23.46,34.84,34.86,52.47c5.91,9.14,11.31,18.63,16.65,28.13
			c0.91,1.63,0.91,4.26,0.36,6.14c-4.33,14.72-9.09,29.32-13.36,44.07c-8.18,28.27-16.09,56.61-24.19,84.91
			c-0.62,2.17-1.78,4.19-2.7,6.27c-1.11-2.1-2.43-4.12-3.3-6.31c-12-30.3-19.82-61.82-27.28-93.45c-2.35-9.95-5.23-19.77-7.97-29.63
			c-1.18-4.25-4.42-7.63-8.45-6.46c-2.55,0.74-5.22,5.02-5.75,8.08c-2.89,16.86-1.25,33.72,3.5,49.93
			c12.59,42.99,24.96,86.08,39.27,128.5c9.3,27.57,20.97,54.47,33.26,80.88c10.05,21.61,21.99,42.41,34.21,62.9
			c10.26,17.2,21.35,34.04,33.54,49.91c10.53,13.71,22.84,26.11,34.88,38.58c9.58,9.93,19.38,19.79,30.06,28.47
			c24.05,19.53,48.55,38.52,73.16,57.34c29.48,22.53,63.67,36.18,97.75,49.59c36.13,14.21,73.84,23.37,112.07,29.91
			c27.92,4.78,56.04,8.42,84.06,12.6c3.03,0.45,6.49,0.44,8.9,1.97c2.84,1.81,6.63,5.11,6.56,7.68c-0.07,2.75-3.77,7.23-6.53,7.78
			c-10.53,2.13-21.3,3.38-32.03,4.2C775.49,903.35,767.26,902.85,759.07,902.85z"/>
		<path class="st1" d="M715.97,326.87c10.49-16.99,21.03-33.8,31.29-50.78c6.47-10.7,12.53-21.65,18.74-32.51
			c0.65-1.13,1.43-2.39,1.49-3.62c0.13-2.46,0.73-6.03-0.57-7.16c-1.66-1.44-5.36-1.86-7.6-1.07
			c-11.91,4.22-21.26,11.99-28.51,22.27c-4.29,6.09-8.46,12.27-12.51,18.52c-11.79,18.19-22.68,37.02-35.43,54.5
			c-14.15,19.38-20.72,42.29-31.99,62.92c-14.03,25.69-20.81,53.49-24.44,82.03c-3.67,28.95-7.36,58.03-4.05,87.37
			c3.13,27.76,12.07,53.9,23.3,79.16c8.67,19.51,21.93,36.26,36.38,51.94c4.64,5.03,9.5,9.86,14.17,14.87
			c3.98,4.27,5.1,11.33,1.91,13.92c-4.64,3.75-8.94,2-13.49-1.13c-24.51-16.84-45.66-37.13-63.37-60.99
			c-16.33-22-30.69-45.12-39.69-71.21c-4.69-13.6-10.55-26.95-13.65-40.91c-3.81-17.16-7.14-34.8-7.44-52.29
			c-0.76-44.78,2.36-89.43,14.58-132.81c5.12-18.17,10.87-36.46,19.03-53.4c9.39-19.48,21.75-37.52,32.84-56.18
			c1.27-2.14,2.83-4.11,3.97-6.31c8.51-16.36,21.78-28.76,34.68-41.41c7.67-7.52,17.86-9.03,27.95-9.92
			c5.3-0.47,9.08-2.28,12.74-6.32c17.78-19.65,38.4-36.01,62.3-47.37c16.97-8.07,35.61-8.21,51.94,1.16
			c7.59,4.36,12.68,13.96,17.5,22.03c6.24,10.43,3.85,21.9,0.36,32.7c-5.86,18.15-10.93,36.74-18.88,53.96
			c-8.58,18.58-19.71,36.03-30.57,53.45c-2.63,4.22-8.14,7.77-13.05,9.25c-18.98,5.72-38.25,10.49-57.44,15.53
			C717.32,327.38,715.98,326.87,715.97,326.87z"/>
		<path class="st1" d="M548.14,779.79c-2.69-0.68-4.31-0.77-5.61-1.46c-21.63-11.59-42.48-24.21-61.78-39.64
			c-24.37-19.48-46.95-40.69-67.46-64.08c-12.19-13.89-24.28-28.04-34.72-43.24c-9.39-13.67-17.04-28.66-24.18-43.67
			c-2.05-4.3-0.3-10.83,0.78-16.12c6.14-30.2,12.22-60.43,19.1-90.46c4.54-19.85,10.39-39.4,15.98-60.28
			C430.69,545.94,479.03,666.63,548.14,779.79z"/>
		<path class="st1" d="M340.77,313c11.02,22.6,21.42,43.93,31.83,65.25c2.46,5.05,3.89,9.4,2.23,15.89
			c-6.37,24.86-11.16,50.12-16.64,75.2c-3.93,17.95-8,35.87-12.07,53.78c-2.7,11.84-5.52,23.66-8.59,36.79
			c-1.36-2.47-2.2-3.87-2.92-5.34c-7.95-16.12-15.98-32.2-23.77-48.39c-4.57-9.51-9.53-18.95-12.8-28.92
			c-1.75-5.33-1.14-11.88-0.07-17.6c2.39-12.76,5.23-25.5,8.81-37.98c6.31-21.99,13.33-43.77,20.01-65.65
			c3.79-12.41,7.48-24.85,11.28-37.26C338.51,317.3,339.37,315.94,340.77,313z"/>
		<path class="st1" d="M649.42,568.23c-6.68-22.8-6.56-46.22-4.04-69.63c1.29-11.96,4.26-23.74,6.39-35.61
			c0.83-4.62,3.27-7.15,7.88-8.8c14.68-5.25,29.11-11.18,43.74-16.57c3.6-1.33,7.61-1.56,10.39-2.09
			C692.24,479.96,670.86,524.02,649.42,568.23z"/>
		<path class="st1" d="M766.63,339.16c-6.17,11.65-11.83,22.16-17.32,32.75c-4.67,9.01-9.04,18.18-13.82,27.14
			c-1.23,2.31-3.19,5.34-5.36,5.89c-19.76,4.98-39.64,9.48-60.78,14.42c3.64-9.34,6.79-17.42,9.95-25.5
			c2.91-7.42,6.86-14.6,8.53-22.29c3-13.74,13.13-16.97,24.6-19.63c15.78-3.67,31.43-7.91,47.15-11.85
			C761.46,339.63,763.44,339.57,766.63,339.16z"/>
	</g>
</g>
<g id="vector_art_feathers" class="st4">
</g>
</svg>
